<svg viewBox="0 0 200 200" data-name="archie" xmlns="http://www.w3.org/2000/svg"><path d="M26.1 71.6C27.0 70.6 30.8 74.6 34.7 74.9C38.5 75.2 44.5 73.8 49.3 73.6C54.0 73.4 58.3 73.4 63.1 73.8C67.9 74.2 73.2 75.8 78.1 75.8C83.0 75.9 87.5 74.4 92.4 74.1C97.3 73.7 102.5 73.6 107.4 73.9C112.3 74.3 117.1 76.0 121.8 76.2C126.5 76.5 131.0 75.6 135.8 75.6C140.6 75.5 145.8 75.9 150.7 75.9C155.6 75.9 161.4 76.2 165.1 75.7C168.7 75.3 171.6 72.2 172.6 73.1C173.5 74.0 171.1 77.5 171.0 81.3C170.8 85.1 171.4 91.0 171.7 96.0C172.0 100.9 173.0 105.8 172.9 110.8C172.7 115.9 171.4 121.2 171.1 126.3C170.8 131.4 170.8 136.2 171.1 141.3C171.3 146.3 172.4 152.7 172.6 156.7C172.8 160.7 173.2 164.4 172.2 165.3C171.2 166.2 169.8 162.4 166.6 161.9C163.5 161.5 157.3 162.2 153.2 162.8C149.2 163.4 143.3 165.2 142.5 165.5C141.7 165.8 148.1 167.3 148.5 164.4C148.9 161.5 146.3 153.7 144.9 148.3C143.5 142.8 142.8 136.4 140.2 131.5C137.6 126.6 133.1 122.3 129.2 118.9C125.3 115.6 121.1 113.6 116.8 111.3C112.5 109.0 107.9 106.0 103.2 105.0C98.6 104.0 93.6 103.7 89.1 105.2C84.5 106.7 80.2 111.0 76.0 114.3C71.8 117.5 67.0 120.3 64.1 124.7C61.2 129.0 60.7 135.0 58.7 140.2C56.8 145.4 53.5 151.8 52.5 156.0C51.6 160.3 54.2 164.5 53.1 165.7C52.0 166.8 49.4 163.1 46.1 163.0C42.8 162.8 36.5 164.5 33.2 164.9C30.0 165.3 27.5 166.6 26.7 165.3C26.0 164.0 28.2 161.0 28.6 157.0C29.0 152.9 29.2 146.2 29.3 141.1C29.3 136.1 28.7 131.7 28.6 126.8C28.5 122.0 28.8 117.0 28.7 111.9C28.6 106.8 28.1 101.5 28.2 96.4C28.3 91.2 29.7 84.9 29.3 80.8C29.0 76.7 25.2 72.6 26.1 71.6Z" fill="#F6C445"/><path d="M13.2 58.7C16.9 54.7 29.1 57.2 35.0 56.9C40.8 56.6 43.3 56.6 48.2 57.0C53.2 57.4 59.3 58.9 64.4 59.2C69.5 59.4 74.2 58.0 78.9 58.3C83.6 58.6 87.9 60.5 92.7 60.9C97.4 61.2 102.6 60.6 107.4 60.2C112.1 59.8 116.2 58.6 120.9 58.6C125.7 58.7 130.9 60.6 136.0 60.4C141.0 60.1 146.4 57.0 151.4 57.0C156.4 57.0 160.4 60.1 166.0 60.6C171.6 61.2 181.7 56.9 184.8 60.5C187.9 64.0 184.5 75.9 184.6 81.8C184.7 87.7 184.8 90.7 185.6 95.8C186.4 100.8 189.3 106.8 189.3 112.1C189.4 117.4 186.3 122.4 186.0 127.4C185.6 132.4 187.3 137.0 187.2 142.0C187.1 147.1 185.5 151.4 185.6 157.7C185.7 163.9 190.8 176.3 187.7 179.7C184.5 183.1 172.5 178.4 166.9 178.0C161.3 177.7 158.9 177.5 154.0 177.4C149.0 177.3 140.8 179.3 137.3 177.6C133.8 175.8 134.5 171.3 133.1 167.1C131.6 163.0 130.2 157.2 128.8 152.6C127.3 148.0 126.2 143.3 124.5 139.7C122.7 136.1 120.9 133.1 118.4 131.1C115.9 129.0 112.2 128.7 109.4 127.5C106.6 126.3 104.3 125.1 101.7 123.9C99.1 122.7 96.2 119.2 93.8 120.1C91.3 121.0 89.0 126.3 87.1 129.1C85.1 131.9 84.5 134.1 82.1 137.0C79.7 139.9 75.0 142.6 72.7 146.5C70.4 150.3 69.6 154.4 68.5 159.9C67.3 165.3 69.5 176.4 65.9 179.3C62.3 182.1 52.5 177.0 47.0 177.0C41.4 177.1 38.2 179.4 32.6 179.5C26.9 179.7 16.3 181.6 13.2 177.9C10.0 174.2 13.7 163.1 13.9 157.2C14.1 151.3 14.4 147.6 14.5 142.5C14.7 137.3 15.3 131.3 14.7 126.2C14.0 121.2 10.5 117.2 10.6 112.0C10.7 106.9 14.8 100.5 15.2 95.4C15.5 90.3 13.2 87.4 12.8 81.3C12.5 75.2 9.5 62.8 13.2 58.7Z M25.9 71.4C26.9 69.9 30.7 71.4 34.5 71.7C38.2 72.1 43.6 73.4 48.3 73.3C53.0 73.2 57.7 71.4 62.8 71.4C67.9 71.4 73.7 72.5 78.8 73.0C83.8 73.5 88.4 74.7 93.1 74.4C97.9 74.1 102.8 71.7 107.5 71.3C112.2 70.9 116.4 71.6 121.1 71.9C125.8 72.2 130.8 73.3 135.7 73.3C140.6 73.2 145.4 71.7 150.5 71.7C155.6 71.7 162.0 73.4 166.4 73.2C170.7 73.0 175.4 69.2 176.5 70.5C177.6 71.9 173.3 76.8 172.8 81.1C172.4 85.4 174.0 91.2 173.9 96.2C173.8 101.3 172.6 106.2 172.2 111.3C171.8 116.3 171.2 121.1 171.6 126.4C172.1 131.6 174.6 137.5 174.9 142.5C175.2 147.6 173.5 152.9 173.5 156.9C173.5 160.8 176.0 165.2 174.8 166.4C173.5 167.6 169.7 164.1 166.2 164.1C162.6 164.1 157.6 166.0 153.6 166.4C149.5 166.8 143.2 166.7 142.0 166.4C140.7 166.1 145.8 167.7 145.9 164.8C146.1 161.9 144.4 154.1 142.9 148.9C141.5 143.7 139.6 138.5 137.2 133.7C134.7 128.9 131.7 123.5 128.3 119.9C124.9 116.3 121.1 114.0 116.9 112.1C112.7 110.3 107.5 109.4 103.1 108.9C98.7 108.3 94.8 107.6 90.6 108.6C86.3 109.7 81.3 112.1 77.4 115.1C73.5 118.1 70.0 122.2 67.1 126.5C64.2 130.9 61.8 136.1 59.9 141.1C58.0 146.1 56.3 152.2 55.5 156.6C54.7 161.1 56.6 166.1 55.2 167.7C53.8 169.3 50.7 166.5 46.9 166.3C43.2 166.0 36.5 166.2 32.7 166.3C28.9 166.5 25.4 168.8 24.1 167.2C22.9 165.6 24.8 161.0 25.2 156.8C25.7 152.7 26.8 147.5 26.9 142.3C27.0 137.1 25.7 131.0 25.7 125.8C25.7 120.6 27.0 116.1 27.1 111.1C27.2 106.1 26.0 100.9 26.2 95.9C26.4 90.8 28.3 84.7 28.3 80.6C28.2 76.6 24.9 72.9 25.9 71.4Z" fill="#141414" fill-rule="evenodd"/><ellipse cx="56" cy="98" rx="11.5" ry="12.5" transform="rotate(-7 56 98)" fill="#fff"/><ellipse cx="58" cy="102.5" rx="7" ry="8" transform="rotate(-7 58 102.5)" fill="#141414"/><path d="M47.3 85.8 L40.9 76.7" stroke="#141414" stroke-width="3.8" stroke-linecap="round" fill="none"/><path d="M55.5 81.6 L55.1 69.5" stroke="#141414" stroke-width="3.8" stroke-linecap="round" fill="none"/><path d="M65.0 85.5 L70.7 77.7" stroke="#141414" stroke-width="3.8" stroke-linecap="round" fill="none"/><ellipse cx="144" cy="95" rx="11.5" ry="12.5" transform="rotate(6 144 95)" fill="#fff"/><ellipse cx="142" cy="99.5" rx="7" ry="8" transform="rotate(6 142 99.5)" fill="#141414"/><path d="M135.3 82.2 L128.9 72.7" stroke="#141414" stroke-width="3.8" stroke-linecap="round" fill="none"/><path d="M143.9 79.0 L143.9 67.6" stroke="#141414" stroke-width="3.8" stroke-linecap="round" fill="none"/><path d="M153.7 83.4 L161.5 74.1" stroke="#141414" stroke-width="3.8" stroke-linecap="round" fill="none"/></svg>