<svg viewBox="0 0 200 200" data-name="brick" xmlns="http://www.w3.org/2000/svg"><path d="M25.9 83.7C27.2 82.6 30.6 84.6 34.5 84.9C38.3 85.2 44.1 85.6 49.1 85.6C54.0 85.5 59.2 84.3 64.1 84.4C68.9 84.5 73.7 86.1 78.4 86.1C83.2 86.1 87.8 84.5 92.6 84.4C97.5 84.4 102.6 85.4 107.5 85.6C112.4 85.7 117.2 86.2 122.1 85.6C127.0 85.0 132.0 82.2 136.9 82.1C141.8 82.0 146.7 84.9 151.6 84.9C156.4 84.9 162.3 82.7 165.9 82.2C169.5 81.7 172.6 80.9 173.3 81.9C174.1 82.9 170.9 84.9 170.5 88.1C170.1 91.3 171.1 96.6 171.2 101.2C171.2 105.7 170.8 110.7 170.8 115.4C170.8 120.0 170.4 125.6 171.2 129.0C172.0 132.3 176.2 134.7 175.4 135.5C174.5 136.4 170.1 134.8 166.0 134.3C162.0 133.8 155.7 132.5 150.9 132.4C146.1 132.3 142.0 133.1 137.2 133.7C132.3 134.2 126.6 135.6 121.6 135.8C116.7 136.0 112.4 134.8 107.5 134.8C102.6 134.8 97.3 135.4 92.3 135.7C87.4 136.0 82.7 136.5 77.7 136.6C72.8 136.8 67.6 136.7 62.7 136.6C57.9 136.4 53.5 135.5 48.6 135.5C43.7 135.6 37.4 136.2 33.2 137.0C29.1 137.8 24.6 140.9 23.7 140.2C22.9 139.4 27.1 135.8 28.0 132.3C29.0 128.8 29.1 123.6 29.4 119.1C29.7 114.5 30.2 109.5 29.8 104.9C29.3 100.3 27.2 95.0 26.6 91.5C26.0 88.0 24.6 84.8 25.9 83.7Z" fill="#F2A3B3"/><path d="M14.4 73.0C17.7 69.3 28.7 69.2 34.5 68.6C40.2 68.0 44.1 69.1 49.0 69.4C53.9 69.7 59.0 70.5 63.9 70.5C68.8 70.4 73.6 69.5 78.5 69.2C83.4 68.8 88.5 68.4 93.1 68.4C97.8 68.4 101.7 68.8 106.5 69.1C111.3 69.4 117.1 70.0 122.1 70.1C127.1 70.2 131.9 70.2 136.5 69.7C141.1 69.2 145.3 67.8 149.9 67.2C154.6 66.6 158.2 66.4 164.4 66.0C170.6 65.7 183.2 61.6 187.2 65.2C191.2 68.8 188.6 81.9 188.3 87.9C188.0 93.9 186.0 96.8 185.6 101.4C185.2 106.0 185.3 110.8 185.8 115.5C186.3 120.1 188.8 124.0 188.7 129.1C188.6 134.3 188.7 143.1 185.1 146.6C181.5 150.0 172.7 149.0 167.0 149.9C161.4 150.7 156.0 151.7 151.1 151.6C146.2 151.5 142.4 149.2 137.6 149.1C132.8 149.1 127.5 150.8 122.5 151.3C117.4 151.7 112.4 151.7 107.6 151.6C102.8 151.5 98.6 151.0 93.7 150.7C88.7 150.4 83.1 149.4 78.1 149.8C73.1 150.2 68.4 152.4 63.5 153.0C58.6 153.6 53.6 153.2 48.6 153.4C43.6 153.7 39.3 154.8 33.7 154.5C28.0 154.2 18.1 155.5 14.9 151.7C11.7 147.9 15.1 137.3 14.4 131.7C13.7 126.1 10.6 122.7 10.6 118.2C10.6 113.7 13.8 109.4 14.5 104.8C15.1 100.3 14.6 96.1 14.6 90.8C14.6 85.5 11.1 76.7 14.4 73.0Z M24.7 82.3C25.8 81.2 30.3 84.1 34.6 84.2C38.8 84.3 45.2 82.8 50.1 82.9C54.9 83.0 59.0 84.9 63.7 84.9C68.5 84.9 73.8 82.9 78.7 82.6C83.5 82.4 88.1 83.8 92.8 83.5C97.5 83.3 102.1 81.0 107.0 81.0C111.9 81.0 117.3 83.2 122.4 83.6C127.4 83.9 132.4 83.1 137.3 82.9C142.2 82.7 147.0 82.6 151.9 82.4C156.7 82.2 162.3 82.4 166.3 81.8C170.4 81.2 175.3 77.9 176.3 78.8C177.2 79.7 172.9 83.5 172.1 87.1C171.3 90.8 171.2 96.3 171.6 100.8C171.9 105.3 174.0 109.5 174.2 114.1C174.4 118.8 172.6 125.0 172.8 128.6C173.0 132.3 176.6 134.8 175.5 135.8C174.3 136.7 169.9 134.6 165.8 134.3C161.6 134.1 155.4 133.9 150.4 134.3C145.5 134.6 141.0 136.1 136.3 136.5C131.5 136.9 126.9 136.3 121.9 136.7C117.0 137.0 111.3 138.4 106.5 138.6C101.8 138.9 98.3 138.5 93.3 138.4C88.4 138.3 82.0 137.9 76.9 137.9C71.9 137.9 67.7 138.3 63.0 138.4C58.3 138.6 53.9 138.7 48.9 138.8C43.9 139.0 37.1 139.4 33.1 139.5C29.1 139.7 26.0 140.7 24.8 139.6C23.6 138.5 25.7 136.3 25.8 132.8C26.0 129.2 25.8 122.7 25.7 118.1C25.6 113.6 24.6 110.1 25.0 105.6C25.4 101.1 28.2 95.0 28.1 91.1C28.1 87.2 23.7 83.5 24.7 82.3Z" fill="#141414" fill-rule="evenodd"/><ellipse cx="62" cy="110" rx="13" ry="14" transform="rotate(-6 62 110)" fill="#fff"/><ellipse cx="67.5" cy="110.5" rx="8" ry="9.5" transform="rotate(-6 67.5 110.5)" fill="#141414"/><path d="M52.0 96.2 L44.8 86.3" stroke="#141414" stroke-width="3.8" stroke-linecap="round" fill="none"/><path d="M61.0 93.0 L60.4 82.6" stroke="#141414" stroke-width="3.8" stroke-linecap="round" fill="none"/><path d="M73.0 97.3 L79.3 90.1" stroke="#141414" stroke-width="3.8" stroke-linecap="round" fill="none"/><ellipse cx="140" cy="107" rx="13.5" ry="14.5" transform="rotate(5 140 107)" fill="#fff"/><ellipse cx="145.5" cy="107.5" rx="8" ry="9.5" transform="rotate(5 145.5 107.5)" fill="#141414"/><path d="M127.9 93.3 L121.2 85.6" stroke="#141414" stroke-width="3.8" stroke-linecap="round" fill="none"/><path d="M141.0 89.6 L141.7 77.2" stroke="#141414" stroke-width="3.8" stroke-linecap="round" fill="none"/><path d="M150.7 92.1 L158.2 81.6" stroke="#141414" stroke-width="3.8" stroke-linecap="round" fill="none"/></svg>