<svg viewBox="0 0 200 200" data-name="elbow" xmlns="http://www.w3.org/2000/svg"><path d="M41.5 36.5C42.7 35.3 46.4 39.1 50.4 39.3C54.5 39.5 60.8 38.2 65.8 37.8C70.8 37.3 76.2 36.9 80.2 36.9C84.3 36.8 88.6 36.1 90.0 37.4C91.4 38.6 89.1 40.9 88.5 44.3C87.9 47.7 86.7 52.9 86.4 57.6C86.1 62.2 86.3 67.8 86.6 72.5C86.9 77.2 88.1 81.2 88.3 85.8C88.5 90.5 87.8 94.5 88.0 100.3C88.1 106.1 85.4 116.9 89.2 120.5C93.1 124.0 104.9 121.3 111.0 121.5C117.2 121.6 121.0 121.2 125.9 121.5C130.8 121.8 135.6 122.8 140.6 123.1C145.6 123.3 151.9 123.4 155.7 123.1C159.5 122.8 162.3 120.3 163.2 121.3C164.1 122.3 161.0 125.4 160.8 129.0C160.7 132.5 162.7 137.9 162.5 142.6C162.3 147.3 159.2 153.1 159.7 157.2C160.1 161.3 165.7 166.1 164.9 167.2C164.2 168.4 159.5 165.0 155.3 164.1C151.2 163.3 145.1 162.5 140.1 162.4C135.0 162.3 129.9 163.6 124.9 163.5C119.8 163.4 114.6 162.0 109.6 161.8C104.6 161.6 99.6 162.3 94.7 162.5C89.9 162.6 85.1 162.4 80.2 162.7C75.3 163.1 70.5 164.6 65.3 164.7C60.2 164.8 53.7 163.1 49.5 163.4C45.4 163.7 41.0 167.9 40.2 166.7C39.4 165.5 43.9 160.4 44.5 156.1C45.1 151.7 44.0 145.9 43.7 140.7C43.4 135.4 42.9 129.7 42.6 124.5C42.4 119.2 41.8 114.2 42.2 109.0C42.6 103.8 44.8 98.7 44.9 93.4C45.0 88.1 43.0 82.4 42.7 77.1C42.4 71.8 43.0 66.8 43.1 61.7C43.2 56.5 43.6 50.5 43.3 46.3C43.1 42.1 40.3 37.6 41.5 36.5Z" fill="#4A6BD3"/><path d="M29.3 23.6C32.9 19.9 44.3 24.0 50.3 24.0C56.3 24.0 60.4 24.3 65.3 23.7C70.3 23.2 74.1 20.7 80.0 20.7C86.0 20.8 96.8 20.2 101.1 24.1C105.3 27.9 105.0 38.1 105.4 43.7C105.8 49.3 103.7 53.2 103.5 57.9C103.3 62.6 104.5 67.2 104.1 71.9C103.8 76.6 101.7 81.1 101.4 85.9C101.2 90.7 102.5 96.8 102.6 100.5C102.6 104.2 100.5 107.0 101.9 108.2C103.3 109.4 106.9 107.9 110.8 108.0C114.7 108.0 120.5 108.7 125.4 108.3C130.4 108.0 135.4 106.1 140.4 105.6C145.5 105.2 149.6 105.5 155.7 105.8C161.7 106.0 172.9 103.2 176.5 107.1C180.2 110.9 177.8 122.9 177.6 129.0C177.3 135.1 175.3 139.1 175.1 143.8C174.9 148.4 176.3 151.4 176.4 156.9C176.4 162.3 178.7 172.6 175.2 176.3C171.7 179.9 161.0 177.9 155.2 178.5C149.3 179.1 145.1 179.3 140.1 179.7C135.0 180.2 129.8 181.4 124.7 181.1C119.6 180.8 114.4 178.3 109.3 178.1C104.2 178.0 99.2 179.6 94.2 180.0C89.1 180.3 84.0 180.5 79.2 180.1C74.4 179.7 70.1 177.4 65.4 177.6C60.7 177.8 57.3 180.8 50.9 181.3C44.4 181.8 30.4 184.9 26.9 180.6C23.4 176.3 29.9 162.3 29.7 155.5C29.5 148.7 26.3 145.0 25.8 139.8C25.3 134.6 26.4 129.2 26.9 124.2C27.4 119.2 28.8 115.1 28.9 109.8C29.0 104.5 27.9 97.8 27.4 92.4C26.9 87.0 25.3 82.4 25.8 77.3C26.3 72.3 30.0 67.3 30.4 62.1C30.8 57.0 28.4 52.7 28.2 46.3C28.1 39.8 25.6 27.3 29.3 23.6Z M41.0 36.5C42.3 35.0 45.6 36.7 49.6 37.0C53.6 37.3 59.6 38.2 64.9 38.5C70.2 38.8 76.8 39.6 81.3 38.8C85.7 38.0 90.4 32.8 91.8 33.8C93.2 34.7 90.1 40.7 89.5 44.7C88.9 48.7 87.9 53.1 88.0 57.7C88.2 62.3 90.2 67.7 90.5 72.5C90.7 77.3 89.7 82.0 89.5 86.5C89.3 91.1 88.8 94.3 89.3 99.7C89.7 105.1 88.5 115.1 92.0 118.9C95.6 122.8 104.8 122.2 110.5 122.7C116.2 123.2 121.3 121.9 126.3 121.8C131.3 121.6 135.9 121.9 140.7 121.8C145.5 121.7 150.8 121.6 155.0 121.3C159.1 120.9 164.2 118.3 165.6 119.5C167.0 120.7 164.3 124.4 163.6 128.3C162.9 132.2 161.8 137.8 161.7 142.7C161.5 147.6 162.0 153.5 162.9 157.8C163.7 162.0 168.1 166.6 166.7 168.1C165.3 169.6 158.6 167.2 154.3 166.7C149.9 166.1 145.5 165.2 140.5 164.8C135.5 164.3 129.4 164.2 124.2 164.0C119.1 163.8 114.5 163.5 109.7 163.7C105.0 164.0 100.6 165.7 95.6 165.6C90.6 165.5 84.9 163.6 79.8 163.2C74.6 162.8 69.9 162.7 64.9 163.3C60.0 163.9 54.0 166.2 50.1 166.8C46.1 167.5 42.3 168.9 41.1 167.2C39.9 165.5 42.4 161.1 42.8 156.5C43.2 152.0 43.7 145.5 43.5 140.1C43.3 134.7 41.6 129.4 41.6 124.3C41.6 119.2 43.7 114.4 43.5 109.3C43.3 104.3 40.5 99.4 40.4 94.0C40.2 88.6 42.1 82.1 42.5 76.8C42.9 71.4 43.2 67.1 43.0 62.1C42.9 57.0 41.8 50.5 41.5 46.2C41.1 42.0 39.6 38.1 41.0 36.5Z" fill="#141414" fill-rule="evenodd"/><ellipse cx="55" cy="64" rx="10.5" ry="13" transform="rotate(-6 55 64)" fill="#fff"/><ellipse cx="59" cy="66.5" rx="6.5" ry="8.5" transform="rotate(-6 59 66.5)" fill="#141414"/><path d="M44.0 51.4 L37.7 44.3" stroke="#141414" stroke-width="3.8" stroke-linecap="round" fill="none"/><path d="M51.8 48.4 L49.8 38.9" stroke="#141414" stroke-width="3.8" stroke-linecap="round" fill="none"/><path d="M59.3 47.7 L62.0 37.8" stroke="#141414" stroke-width="3.8" stroke-linecap="round" fill="none"/><path d="M64.3 50.8 L69.8 43.0" stroke="#141414" stroke-width="3.8" stroke-linecap="round" fill="none"/><ellipse cx="81" cy="60" rx="11" ry="13.5" transform="rotate(5 81 60)" fill="#fff"/><ellipse cx="85" cy="62.5" rx="6.5" ry="8.5" transform="rotate(5 85 62.5)" fill="#141414"/><path d="M72.0 46.8 L65.7 37.6" stroke="#141414" stroke-width="3.8" stroke-linecap="round" fill="none"/><path d="M76.8 44.6 L73.3 32.0" stroke="#141414" stroke-width="3.8" stroke-linecap="round" fill="none"/><path d="M85.2 43.5 L88.1 31.7" stroke="#141414" stroke-width="3.8" stroke-linecap="round" fill="none"/><path d="M91.9 47.1 L99.5 38.2" stroke="#141414" stroke-width="3.8" stroke-linecap="round" fill="none"/></svg>