<svg viewBox="0 0 200 200" data-name="rondo" xmlns="http://www.w3.org/2000/svg"><path d="M176.4 103.8C176.2 107.2 172.5 111.4 171.8 114.9C171.2 118.3 173.1 121.4 172.4 124.5C171.7 127.7 169.3 130.3 167.6 133.5C165.9 136.7 164.1 140.8 162.1 143.7C160.1 146.6 158.0 149.1 155.5 151.1C153.1 153.2 151.9 153.8 147.3 156.0C142.8 158.3 134.8 162.5 128.5 164.7C122.2 167.0 115.9 169.0 109.6 169.6C103.4 170.1 97.5 169.0 91.1 168.2C84.7 167.4 77.3 166.9 71.0 164.9C64.7 162.8 58.9 159.8 53.5 155.9C48.0 152.1 41.3 145.9 38.2 141.9C35.2 138.0 36.6 135.2 35.2 132.2C33.7 129.3 30.8 127.5 29.7 124.4C28.6 121.3 29.4 117.3 28.7 113.8C28.1 110.3 26.3 106.9 25.6 103.5C25.0 100.1 24.6 96.8 24.8 93.3C24.9 89.7 25.4 85.3 26.5 82.0C27.6 78.7 29.3 76.1 31.3 73.4C33.2 70.7 35.8 68.1 38.2 65.7C40.6 63.3 43.3 61.6 45.7 59.0C48.0 56.5 48.4 53.5 52.5 50.5C56.6 47.5 64.1 43.2 70.4 41.1C76.7 39.0 83.9 38.1 90.4 38.0C96.8 37.9 102.9 40.0 109.3 40.8C115.7 41.6 122.8 40.8 128.9 42.7C135.0 44.6 140.8 48.0 146.0 52.1C151.2 56.3 156.9 63.7 160.1 67.7C163.3 71.6 163.3 73.3 165.3 75.9C167.4 78.4 171.3 80.0 172.5 83.2C173.7 86.3 172.1 91.3 172.7 94.8C173.4 98.2 176.5 100.5 176.4 103.8Z" fill="#E9593E"/><path d="M190.9 104.1C190.9 108.3 187.6 112.3 187.0 116.6C186.3 120.9 188.4 125.9 187.0 129.8C185.7 133.7 181.3 136.5 179.0 140.2C176.8 143.9 175.7 148.1 173.7 151.8C171.7 155.5 170.0 158.9 167.0 162.1C163.9 165.4 161.0 167.8 155.5 171.2C150.0 174.6 141.2 180.2 133.9 182.6C126.6 185.0 119.1 185.3 111.6 185.4C104.1 185.5 96.6 184.1 89.0 183.3C81.3 182.6 72.9 183.2 65.4 180.9C58.0 178.6 50.4 174.6 44.3 169.6C38.3 164.7 33.1 156.0 29.1 151.3C25.1 146.5 22.9 144.8 20.3 141.3C17.6 137.8 14.8 134.4 13.5 130.2C12.2 126.0 13.6 120.7 12.6 116.3C11.5 112.0 7.4 108.4 7.1 104.1C6.8 99.8 10.3 95.1 11.0 90.5C11.6 85.9 9.4 80.5 11.0 76.7C12.6 72.9 18.5 71.4 20.6 67.7C22.7 63.9 21.0 57.3 23.6 54.0C26.2 50.7 33.1 51.2 36.3 48.0C39.6 44.8 38.2 38.4 43.1 34.8C48.0 31.1 57.9 28.4 65.6 26.1C73.3 23.8 81.5 22.0 89.3 21.0C97.1 20.0 104.9 18.7 112.3 20.1C119.8 21.5 126.4 26.7 133.9 29.3C141.3 32.0 150.4 31.6 156.9 35.8C163.4 40.0 169.3 49.3 172.9 54.4C176.6 59.6 176.7 62.7 178.6 66.8C180.5 71.0 183.3 75.1 184.6 79.2C185.9 83.2 185.4 86.7 186.4 90.9C187.5 95.0 190.8 99.8 190.9 104.1Z M176.4 104.9C176.4 108.4 174.0 110.9 173.6 114.5C173.1 118.0 174.4 122.6 173.7 126.1C173.0 129.7 171.2 133.0 169.4 135.9C167.6 138.8 165.4 141.0 163.0 143.5C160.7 146.1 157.2 148.6 155.0 151.3C152.8 153.9 154.2 156.9 150.0 159.4C145.7 161.8 136.4 164.2 129.8 165.9C123.1 167.7 116.5 169.2 110.0 170.0C103.5 170.8 97.1 171.7 90.8 170.7C84.5 169.7 78.4 166.3 72.2 163.8C66.0 161.3 59.7 159.4 53.8 155.9C47.8 152.5 40.0 147.1 36.6 143.4C33.1 139.6 34.4 136.4 32.8 133.4C31.2 130.5 28.7 128.9 27.2 125.7C25.7 122.4 24.8 117.7 23.8 114.0C22.9 110.3 21.5 106.7 21.7 103.3C22.0 99.9 24.2 96.9 25.2 93.4C26.2 90.0 26.6 85.9 27.8 82.8C29.0 79.7 31.0 77.7 32.5 74.8C34.0 71.8 35.0 67.8 36.9 65.0C38.8 62.2 41.4 60.0 43.9 57.8C46.4 55.6 47.5 54.3 52.0 51.7C56.4 49.2 64.1 44.4 70.5 42.3C77.0 40.1 84.3 39.6 90.7 38.7C97.1 37.9 102.8 36.4 109.0 37.2C115.2 37.9 121.9 40.9 128.0 43.3C134.1 45.7 139.7 47.9 145.6 51.6C151.5 55.3 160.0 61.5 163.5 65.3C167.1 69.1 165.7 71.5 166.9 74.5C168.1 77.4 169.6 80.1 170.7 83.2C171.9 86.4 172.9 89.9 173.9 93.5C174.8 97.1 176.5 101.4 176.4 104.9Z" fill="#141414" fill-rule="evenodd"/><ellipse cx="80" cy="92" rx="13" ry="15" transform="rotate(-5 80 92)" fill="#fff"/><ellipse cx="80" cy="93.5" rx="8" ry="10" transform="rotate(-5 80 93.5)" fill="#141414"/><path d="M69.5 77.7 L63.9 70.0" stroke="#141414" stroke-width="3.8" stroke-linecap="round" fill="none"/><path d="M73.0 74.5 L68.5 63.1" stroke="#141414" stroke-width="3.8" stroke-linecap="round" fill="none"/><path d="M79.1 73.3 L78.4 60.4" stroke="#141414" stroke-width="3.8" stroke-linecap="round" fill="none"/><path d="M86.2 75.1 L90.1 64.6" stroke="#141414" stroke-width="3.8" stroke-linecap="round" fill="none"/><path d="M90.1 77.7 L97.5 67.1" stroke="#141414" stroke-width="3.8" stroke-linecap="round" fill="none"/><ellipse cx="118" cy="88" rx="14" ry="16" transform="rotate(7 118 88)" fill="#fff"/><ellipse cx="118" cy="89.5" rx="8.5" ry="10.5" transform="rotate(7 118 89.5)" fill="#141414"/><path d="M106.4 72.6 L98.8 62.4" stroke="#141414" stroke-width="3.8" stroke-linecap="round" fill="none"/><path d="M111.4 69.3 L107.3 57.7" stroke="#141414" stroke-width="3.8" stroke-linecap="round" fill="none"/><path d="M117.2 69.1 L116.8 59.0" stroke="#141414" stroke-width="3.8" stroke-linecap="round" fill="none"/><path d="M123.6 69.5 L126.6 59.9" stroke="#141414" stroke-width="3.8" stroke-linecap="round" fill="none"/><path d="M129.3 73.1 L137.0 63.1" stroke="#141414" stroke-width="3.8" stroke-linecap="round" fill="none"/></svg>