<svg viewBox="0 0 200 200" data-name="squish" xmlns="http://www.w3.org/2000/svg"><path d="M41.0 50.7C42.4 49.6 47.1 52.4 51.1 53.0C55.2 53.6 60.2 54.0 65.2 54.1C70.1 54.2 75.8 54.3 80.8 53.6C85.8 53.0 90.5 50.6 95.3 50.3C100.1 50.0 104.8 52.0 109.6 51.8C114.4 51.7 119.2 49.8 124.1 49.3C129.1 48.8 134.2 49.0 139.1 49.0C143.9 48.9 149.3 49.8 153.1 49.0C157.0 48.2 161.0 43.4 162.2 44.1C163.3 44.8 160.1 49.1 159.8 53.1C159.6 57.1 160.6 63.0 160.6 67.9C160.5 72.8 159.3 77.4 159.5 82.2C159.8 87.1 161.9 92.1 162.1 96.9C162.3 101.8 160.7 106.7 160.9 111.5C161.1 116.3 162.7 120.9 163.1 125.7C163.4 130.5 162.7 135.2 162.7 140.1C162.8 144.9 162.8 151.2 163.2 154.9C163.5 158.5 166.0 160.7 164.7 162.0C163.5 163.3 159.7 162.7 155.6 162.8C151.6 162.8 145.7 162.3 140.5 162.3C135.4 162.4 129.9 162.9 124.6 162.9C119.3 162.9 113.9 162.6 108.6 162.4C103.3 162.2 98.2 161.8 93.0 161.7C87.8 161.6 82.6 161.6 77.5 162.1C72.4 162.5 67.5 163.6 62.3 164.2C57.2 164.8 50.8 165.0 46.4 165.6C42.0 166.1 37.0 168.4 36.1 167.6C35.2 166.8 40.1 164.4 41.0 160.7C41.9 157.1 41.2 150.5 41.4 145.7C41.6 140.9 42.5 136.9 42.3 132.1C42.1 127.4 40.3 122.1 40.4 117.2C40.4 112.3 42.1 107.5 42.6 102.8C43.1 98.0 43.2 93.5 43.6 88.8C43.9 84.2 44.7 79.7 44.6 74.9C44.5 70.1 43.6 64.0 43.0 60.0C42.4 56.0 39.6 51.9 41.0 50.7Z" fill="#4A6BD3"/><path d="M30.4 39.3C33.7 35.8 44.5 38.7 50.2 38.3C55.8 37.9 59.2 37.2 64.1 36.9C69.0 36.5 74.7 36.7 79.5 36.3C84.3 35.8 88.3 34.2 93.0 34.1C97.7 34.0 102.6 35.9 107.7 35.6C112.7 35.2 118.0 32.3 123.2 32.2C128.3 32.1 133.6 35.4 138.5 34.9C143.3 34.5 146.6 30.3 152.2 29.7C157.8 29.0 168.3 27.5 172.0 31.1C175.8 34.8 174.4 45.6 174.7 51.5C174.9 57.4 173.8 61.4 173.6 66.4C173.4 71.4 173.0 76.4 173.4 81.4C173.8 86.4 175.4 91.7 176.0 96.6C176.5 101.5 176.6 106.0 176.9 110.8C177.1 115.6 177.2 120.6 177.3 125.4C177.5 130.1 177.1 134.3 177.7 139.2C178.3 144.2 180.5 148.8 180.9 155.0C181.2 161.2 183.9 173.1 179.9 176.5C176.0 179.9 163.5 175.5 156.9 175.2C150.3 175.0 145.7 174.7 140.4 175.1C135.0 175.4 129.9 176.8 124.6 177.2C119.3 177.6 113.7 177.2 108.7 177.7C103.8 178.2 100.1 180.4 94.9 180.4C89.7 180.5 83.0 178.1 77.5 178.0C71.9 177.9 66.7 179.4 61.7 179.8C56.7 180.1 53.9 179.6 47.7 179.9C41.5 180.2 28.1 185.1 24.6 181.7C21.0 178.4 26.8 166.1 26.5 159.9C26.3 153.7 22.7 149.4 22.9 144.7C23.1 140.0 26.6 136.1 27.5 131.6C28.4 127.1 28.5 122.4 28.1 117.7C27.8 113.0 25.5 108.0 25.3 103.1C25.2 98.3 26.4 93.4 27.1 88.5C27.7 83.6 28.9 78.6 29.4 73.8C29.9 69.0 30.1 65.5 30.2 59.8C30.4 54.0 27.1 42.9 30.4 39.3Z M41.9 52.1C43.2 51.0 46.6 53.7 50.6 53.2C54.6 52.8 60.9 49.7 66.0 49.4C71.0 49.0 76.1 50.8 80.8 51.0C85.6 51.2 89.8 51.2 94.5 50.6C99.3 49.9 104.3 47.4 109.4 47.2C114.4 46.9 120.0 49.0 124.7 49.1C129.5 49.3 133.3 48.6 137.9 47.9C142.6 47.2 148.6 45.6 152.5 44.8C156.4 44.1 160.1 41.9 161.2 43.3C162.3 44.6 159.2 49.0 159.0 53.0C158.8 57.1 159.8 62.8 160.1 67.6C160.5 72.4 160.5 77.1 161.2 81.9C161.8 86.7 163.7 91.4 164.0 96.4C164.3 101.4 163.4 106.9 163.1 111.7C162.8 116.5 161.7 120.2 162.1 125.0C162.5 129.9 165.3 135.8 165.5 140.7C165.7 145.5 163.2 150.1 163.5 154.2C163.7 158.3 168.5 164.1 167.1 165.3C165.8 166.5 159.7 161.5 155.2 161.4C150.8 161.3 145.2 164.3 140.3 164.6C135.3 164.9 130.8 163.7 125.5 163.3C120.1 163.0 113.6 162.4 108.2 162.5C102.8 162.6 98.2 163.5 93.0 163.8C87.8 164.1 82.2 164.0 77.1 164.4C72.0 164.8 67.7 166.1 62.5 166.3C57.3 166.4 50.2 164.9 46.0 165.2C41.8 165.5 38.4 168.9 37.2 167.9C35.9 166.9 38.1 163.0 38.3 159.4C38.6 155.8 38.7 150.8 38.7 146.2C38.6 141.7 37.5 136.8 38.0 132.1C38.6 127.4 41.6 122.6 42.1 117.9C42.5 113.2 40.9 108.7 40.9 104.0C41.0 99.2 42.5 94.0 42.6 89.2C42.7 84.5 41.5 80.3 41.6 75.4C41.7 70.5 42.9 63.7 43.0 59.8C43.0 55.9 40.6 53.2 41.9 52.1Z" fill="#141414" fill-rule="evenodd"/><ellipse cx="77" cy="84" rx="15" ry="18" transform="rotate(-8 77 84)" fill="#fff"/><ellipse cx="82" cy="77" rx="8.5" ry="11" transform="rotate(-8 82 77)" fill="#141414"/><path d="M64.9 66.7 L58.4 57.4" stroke="#141414" stroke-width="3.8" stroke-linecap="round" fill="none"/><path d="M71.9 63.9 L69.3 53.3" stroke="#141414" stroke-width="3.8" stroke-linecap="round" fill="none"/><path d="M82.8 63.0 L85.9 51.6" stroke="#141414" stroke-width="3.8" stroke-linecap="round" fill="none"/><path d="M90.9 68.4 L97.3 61.1" stroke="#141414" stroke-width="3.8" stroke-linecap="round" fill="none"/><ellipse cx="125" cy="78" rx="14" ry="17" transform="rotate(6 125 78)" fill="#fff"/><ellipse cx="130" cy="71" rx="8" ry="10.5" transform="rotate(6 130 71)" fill="#141414"/><path d="M112.6 62.4 L106.5 54.7" stroke="#141414" stroke-width="3.8" stroke-linecap="round" fill="none"/><path d="M120.3 58.1 L117.7 47.4" stroke="#141414" stroke-width="3.8" stroke-linecap="round" fill="none"/><path d="M129.0 57.6 L131.5 45.0" stroke="#141414" stroke-width="3.8" stroke-linecap="round" fill="none"/><path d="M137.0 62.5 L142.5 55.2" stroke="#141414" stroke-width="3.8" stroke-linecap="round" fill="none"/></svg>