<svg viewBox="0 0 200 200" data-name="wedge" xmlns="http://www.w3.org/2000/svg"><path d="M99.9 34.8C99.5 34.8 97.3 40.7 98.5 44.3C99.7 48.0 104.4 52.6 107.0 56.9C109.7 61.2 112.0 65.6 114.4 69.9C116.8 74.3 118.9 78.7 121.5 83.0C124.1 87.2 127.2 90.9 129.8 95.4C132.5 99.8 135.2 104.8 137.5 109.5C139.8 114.2 141.2 118.9 143.5 123.3C145.8 127.8 149.0 131.7 151.2 136.1C153.5 140.5 154.9 145.3 157.2 149.8C159.4 154.2 161.8 159.8 164.6 162.9C167.4 166.0 173.8 168.5 174.0 168.5C174.2 168.5 169.4 163.7 165.6 163.0C161.7 162.3 155.8 164.4 150.9 164.5C146.1 164.6 141.4 163.9 136.7 163.6C131.9 163.3 127.2 162.8 122.3 162.6C117.5 162.4 112.5 162.0 107.6 162.4C102.6 162.7 97.6 164.7 92.7 164.7C87.8 164.6 83.1 162.4 78.2 162.0C73.4 161.6 68.5 161.8 63.6 162.0C58.6 162.2 53.6 163.1 48.7 163.2C43.8 163.3 37.6 161.9 34.1 162.5C30.7 163.2 28.1 166.8 28.1 166.9C28.1 167.0 32.0 166.0 34.1 163.1C36.3 160.2 38.4 153.7 41.0 149.3C43.6 144.9 47.2 141.3 49.6 136.9C52.0 132.5 53.1 127.5 55.3 122.9C57.6 118.3 60.6 113.9 63.1 109.5C65.6 105.1 67.7 100.7 70.5 96.4C73.3 92.1 77.6 87.9 80.0 83.5C82.4 79.1 83.1 74.7 85.0 70.0C87.0 65.3 89.1 59.7 91.7 55.4C94.4 51.2 99.6 47.9 101.0 44.5C102.4 41.0 100.3 34.8 99.9 34.8Z" fill="#3EA24B"/><path d="M100.7 14.1C104.9 14.1 108.5 31.1 111.7 37.0C115.0 42.9 118.0 45.1 120.4 49.4C122.8 53.7 123.7 58.5 126.1 62.8C128.5 67.2 132.1 71.2 134.8 75.4C137.4 79.7 139.7 83.7 141.9 88.4C144.1 93.0 145.7 99.0 148.2 103.6C150.7 108.1 153.9 111.7 156.7 115.7C159.6 119.8 163.0 123.4 165.2 128.1C167.4 132.7 167.6 139.0 170.0 143.6C172.3 148.1 176.2 149.9 179.4 155.4C182.6 161.0 191.6 172.7 189.3 176.8C187.1 181.0 172.1 179.8 165.7 180.2C159.2 180.7 155.4 179.7 150.6 179.3C145.9 179.0 142.0 178.2 137.1 178.1C132.2 178.0 126.4 178.7 121.4 178.9C116.5 179.1 112.1 179.3 107.4 179.4C102.7 179.6 98.1 180.0 93.3 179.7C88.5 179.4 83.4 177.3 78.5 177.5C73.6 177.6 69.0 180.6 64.2 180.5C59.4 180.5 54.7 177.8 49.8 177.1C44.9 176.5 41.3 176.8 34.9 176.8C28.6 176.8 13.7 180.5 11.5 177.0C9.2 173.6 18.5 161.8 21.5 156.0C24.5 150.2 27.2 146.6 29.5 142.1C31.8 137.6 32.7 133.4 35.3 129.1C37.8 124.7 42.5 120.6 44.9 116.0C47.2 111.4 47.3 105.7 49.6 101.3C51.9 96.9 56.4 94.0 58.6 89.5C60.9 85.1 61.2 79.2 63.1 74.6C65.0 70.0 67.6 66.3 69.9 62.0C72.2 57.6 74.2 53.0 76.9 48.8C79.7 44.6 82.6 42.6 86.5 36.9C90.5 31.1 96.5 14.1 100.7 14.1Z M100.3 31.8C101.2 31.7 101.4 38.4 103.0 42.2C104.6 46.1 107.5 50.7 110.0 55.1C112.4 59.5 115.4 63.9 117.5 68.7C119.7 73.4 120.8 79.0 122.8 83.5C124.8 88.0 127.3 91.1 129.5 95.5C131.7 99.8 133.6 105.1 136.0 109.7C138.5 114.4 141.2 119.4 144.1 123.5C147.0 127.6 151.0 129.9 153.3 134.3C155.6 138.6 156.0 144.8 158.0 149.6C160.0 154.3 162.7 159.6 165.5 162.8C168.4 166.0 175.3 168.5 175.1 168.8C175.0 169.1 168.7 165.4 164.7 164.7C160.7 164.0 156.0 164.5 151.2 164.8C146.4 165.1 140.8 166.2 135.8 166.5C130.8 166.8 126.3 166.8 121.5 166.5C116.7 166.2 111.8 164.7 106.9 164.7C102.1 164.6 97.2 166.4 92.5 166.3C87.7 166.2 83.4 164.3 78.6 164.0C73.7 163.7 68.1 164.4 63.1 164.7C58.2 164.9 53.7 165.0 49.0 165.2C44.4 165.5 39.1 165.6 35.3 166.3C31.4 166.9 26.1 169.9 25.8 169.1C25.6 168.3 30.8 164.9 33.5 161.5C36.2 158.0 39.3 152.8 41.9 148.6C44.6 144.4 47.3 140.6 49.4 136.2C51.6 131.9 52.7 127.2 54.9 122.6C57.0 118.1 59.7 113.5 62.3 108.9C64.8 104.4 67.4 99.7 70.1 95.5C72.9 91.2 76.5 87.9 78.6 83.6C80.8 79.2 81.1 73.9 83.0 69.2C85.0 64.6 87.6 60.1 90.1 55.7C92.6 51.3 96.3 46.8 98.0 42.8C99.7 38.8 99.5 31.9 100.3 31.8Z" fill="#141414" fill-rule="evenodd"/><ellipse cx="84" cy="124" rx="12" ry="14" transform="rotate(-4 84 124)" fill="#fff"/><ellipse cx="80" cy="129" rx="7" ry="8.5" transform="rotate(-4 80 129)" fill="#141414"/><path d="M73.9 110.7 L66.7 101.2" stroke="#141414" stroke-width="3.8" stroke-linecap="round" fill="none"/><path d="M83.9 106.4 L83.9 95.2" stroke="#141414" stroke-width="3.8" stroke-linecap="round" fill="none"/><path d="M95.4 110.4 L102.8 101.7" stroke="#141414" stroke-width="3.8" stroke-linecap="round" fill="none"/><ellipse cx="117" cy="120" rx="12.5" ry="14.5" transform="rotate(6 117 120)" fill="#fff"/><ellipse cx="113" cy="125" rx="7" ry="8.5" transform="rotate(6 113 125)" fill="#141414"/><path d="M106.4 106.1 L100.6 98.5" stroke="#141414" stroke-width="3.8" stroke-linecap="round" fill="none"/><path d="M116.0 101.7 L115.4 91.9" stroke="#141414" stroke-width="3.8" stroke-linecap="round" fill="none"/><path d="M127.6 106.1 L134.6 97.0" stroke="#141414" stroke-width="3.8" stroke-linecap="round" fill="none"/></svg>