<svg viewBox="0 0 200 200" data-name="zap" xmlns="http://www.w3.org/2000/svg"><path d="M110.9 23.3C112.5 22.2 115.1 24.5 118.2 24.7C121.2 24.9 126.8 24.6 129.3 24.2C131.7 23.9 133.1 22.3 132.8 22.4C132.6 22.5 129.8 22.6 127.8 24.8C125.9 27.0 123.1 32.0 121.2 35.6C119.4 39.2 118.5 42.8 116.8 46.3C115.2 49.9 112.6 53.4 111.4 57.1C110.2 60.8 110.7 63.8 109.5 68.6C108.4 73.4 102.5 82.1 104.4 85.8C106.4 89.5 116.4 90.4 121.2 90.8C126.0 91.1 129.3 88.2 133.0 88.0C136.8 87.8 141.6 89.8 143.8 89.6C146.1 89.3 146.7 86.9 146.5 86.3C146.4 85.8 145.0 85.2 142.9 86.3C140.8 87.3 136.5 89.8 133.9 92.5C131.3 95.2 129.5 99.3 127.1 102.3C124.7 105.3 122.1 108.3 119.5 110.7C116.8 113.1 113.9 114.4 111.2 116.9C108.6 119.4 106.3 122.9 103.8 125.7C101.3 128.5 98.7 130.9 96.3 133.8C93.8 136.7 91.1 140.1 88.8 143.1C86.6 146.0 85.0 148.8 82.7 151.6C80.5 154.4 77.6 156.9 75.3 159.9C73.0 162.8 70.1 166.9 69.2 169.3C68.3 171.7 69.0 173.6 70.0 174.2C71.0 174.8 73.5 174.9 75.3 173.1C77.2 171.3 79.9 166.9 81.1 163.3C82.2 159.8 81.5 155.3 82.2 151.8C83.0 148.2 84.5 145.6 85.5 142.1C86.5 138.6 87.2 134.4 88.1 130.8C89.0 127.2 90.0 125.1 90.9 120.7C91.8 116.3 95.6 108.0 93.5 104.4C91.4 100.8 82.6 100.1 78.3 99.2C74.0 98.3 70.9 98.8 67.5 98.8C64.1 98.7 59.7 97.9 57.8 98.9C55.9 99.9 55.5 104.0 56.1 104.7C56.6 105.5 59.2 104.8 61.2 103.3C63.1 101.7 65.7 98.2 67.7 95.3C69.7 92.4 71.2 88.9 73.0 85.7C74.8 82.4 76.5 78.9 78.4 75.7C80.3 72.6 82.5 69.8 84.3 66.7C86.2 63.6 87.3 59.9 89.6 57.3C91.8 54.6 95.5 53.5 97.6 50.7C99.7 47.9 100.3 43.8 102.2 40.6C104.1 37.4 107.5 34.4 108.9 31.6C110.4 28.7 109.4 24.5 110.9 23.3Z" fill="#F6C445"/><path d="M104.9 11.1C108.7 9.4 114.3 12.3 118.3 12.3C122.4 12.4 124.7 10.9 129.3 11.2C133.9 11.6 144.2 11.2 145.9 14.5C147.7 17.8 141.2 26.4 139.6 31.1C138.0 35.8 138.0 39.2 136.5 42.8C135.1 46.3 132.9 49.2 131.1 52.5C129.3 55.8 127.3 59.1 125.7 62.6C124.1 66.2 122.9 71.4 121.4 73.9C119.8 76.5 116.4 77.9 116.4 77.9C116.4 78.0 118.7 74.9 121.5 74.4C124.2 73.9 129.0 74.6 132.7 75.0C136.5 75.4 139.5 76.2 144.1 76.8C148.8 77.4 159.5 75.9 160.7 78.6C161.9 81.4 154.2 89.6 151.4 93.4C148.6 97.2 146.1 98.5 143.8 101.7C141.5 104.8 139.8 109.6 137.6 112.5C135.3 115.3 132.7 116.4 130.3 118.8C127.8 121.2 125.4 124.1 122.7 126.9C120.1 129.7 116.7 132.9 114.4 135.7C112.0 138.6 110.9 141.2 108.5 144.1C106.2 146.9 102.9 149.9 100.4 152.7C97.8 155.4 95.5 157.8 93.1 160.4C90.6 163.1 88.2 165.7 85.7 168.7C83.2 171.7 82.3 175.1 78.3 178.4C74.3 181.6 64.2 189.8 61.7 188.4C59.2 187.1 62.6 175.3 63.4 170.3C64.3 165.3 65.7 162.1 66.9 158.5C68.1 154.8 69.8 151.9 70.6 148.4C71.4 144.8 70.7 140.4 71.5 137.0C72.4 133.5 74.8 131.0 75.8 127.5C76.9 124.0 77.0 118.7 78.0 116.1C78.9 113.6 81.2 112.3 81.3 112.1C81.4 111.9 80.8 114.7 78.5 114.9C76.2 115.1 70.8 113.4 67.4 113.3C64.0 113.2 62.4 114.7 58.2 114.4C53.9 114.1 43.2 114.3 41.7 111.3C40.3 108.3 47.3 100.5 49.7 96.4C52.1 92.2 54.4 89.8 56.1 86.6C57.8 83.3 57.8 79.6 59.8 76.7C61.8 73.8 65.7 71.8 68.0 69.1C70.3 66.4 71.6 63.3 73.6 60.3C75.5 57.3 77.7 54.1 79.8 51.2C81.8 48.2 83.7 45.6 85.7 42.6C87.6 39.6 89.8 36.4 91.5 33.1C93.2 29.7 93.6 26.4 95.8 22.7C98.1 19.1 101.2 12.9 104.9 11.1Z M111.0 22.7C112.6 21.7 114.9 23.7 117.9 24.1C120.8 24.6 125.9 25.8 128.7 25.3C131.4 24.7 134.1 20.5 134.4 20.6C134.7 20.8 132.4 23.3 130.6 26.0C128.7 28.6 125.2 33.1 123.5 36.6C121.7 40.0 121.5 43.2 120.0 46.7C118.4 50.3 115.8 54.0 114.1 57.8C112.4 61.6 111.3 65.0 109.9 69.5C108.4 74.0 103.6 81.8 105.5 84.7C107.3 87.7 116.8 86.5 121.2 87.1C125.6 87.8 128.0 88.7 131.9 88.7C135.7 88.7 141.0 88.0 144.0 87.4C147.0 86.8 150.1 85.5 150.0 85.3C149.9 85.1 145.9 84.5 143.4 86.2C141.0 87.9 138.1 92.6 135.4 95.4C132.6 98.2 129.4 100.4 127.0 103.0C124.6 105.5 123.4 107.7 121.0 110.6C118.7 113.4 115.4 117.1 113.0 119.9C110.5 122.8 108.4 124.9 106.1 127.6C103.9 130.2 101.8 133.3 99.4 136.1C97.0 138.9 94.1 141.8 91.5 144.6C88.9 147.5 86.4 150.4 83.8 153.1C81.3 155.7 78.6 157.6 76.2 160.5C73.8 163.3 70.6 167.4 69.4 170.0C68.2 172.6 68.2 175.4 69.0 176.0C69.8 176.6 72.7 175.8 74.3 173.7C75.8 171.6 77.1 166.8 78.1 163.3C79.2 159.7 79.6 156.3 80.5 152.7C81.5 149.0 82.6 144.8 83.8 141.2C85.0 137.5 86.4 134.3 87.6 130.8C88.9 127.4 90.2 125.0 91.3 120.6C92.3 116.2 96.3 107.5 94.0 104.4C91.8 101.3 82.2 102.5 77.8 102.0C73.4 101.5 71.2 101.3 67.8 101.4C64.4 101.5 59.7 101.9 57.5 102.5C55.3 103.1 54.3 105.0 54.8 105.0C55.2 105.0 58.4 104.3 60.1 102.4C61.8 100.5 63.1 96.4 64.9 93.4C66.7 90.4 68.7 87.3 71.0 84.3C73.2 81.2 76.1 78.0 78.2 75.2C80.3 72.4 81.7 70.6 83.6 67.7C85.4 64.9 87.2 61.5 89.2 58.2C91.2 55.0 93.4 51.7 95.5 48.4C97.6 45.2 99.8 42.0 101.8 38.9C103.9 35.8 106.4 32.7 107.9 30.0C109.5 27.3 109.3 23.6 111.0 22.7Z" fill="#141414" fill-rule="evenodd"/><ellipse cx="97" cy="57" rx="8.5" ry="10.5" transform="rotate(-8 97 57)" fill="#fff"/><ellipse cx="98.5" cy="53.5" rx="5.5" ry="7.5" transform="rotate(-8 98.5 53.5)" fill="#141414"/><path d="M95.8 42.9 L94.8 30.9" stroke="#141414" stroke-width="3.8" stroke-linecap="round" fill="none"/><path d="M100.9 43.7 L103.9 33.2" stroke="#141414" stroke-width="3.8" stroke-linecap="round" fill="none"/><path d="M106.3 46.5 L114.2 37.6" stroke="#141414" stroke-width="3.8" stroke-linecap="round" fill="none"/><ellipse cx="118" cy="51" rx="8.5" ry="10.5" transform="rotate(7 118 51)" fill="#fff"/><ellipse cx="119.5" cy="47.5" rx="5.5" ry="7.5" transform="rotate(7 119.5 47.5)" fill="#141414"/><path d="M117.2 37.4 L116.7 28.1" stroke="#141414" stroke-width="3.8" stroke-linecap="round" fill="none"/><path d="M122.4 38.4 L125.8 28.7" stroke="#141414" stroke-width="3.8" stroke-linecap="round" fill="none"/><path d="M126.2 40.8 L133.0 32.4" stroke="#141414" stroke-width="3.8" stroke-linecap="round" fill="none"/></svg>